<?xml version="1.0" encoding="UTF-8"?><svg id="Layer_2" xmlns="http://www.w3.org/2000/svg" viewBox="0 0 274.81 207.67"><defs><style>.cls-1{fill:#05b97e;}</style></defs><g id="Layer_2-2"><path class="cls-1" d="M235.59,134.27c-1.11,0-2.16,.47-2.9,1.3-3.73,4.16-9.09,6.61-14.82,6.61h-26.35c-12.58,0-24.6,4.84-34.01,13.19-8.43,7.46-22.52,15.32-44.49,15.32-1.12,0-2.23-.04-3.34-.09v.17c-34.41-2.16-61.66-30.73-61.66-65.69s27.39-63.68,61.92-65.71c15.63,.15,30.71,5.82,42.55,16.02,9.35,8.06,21.17,12.49,33.27,12.49h22.43l-3.14-6.74C187.86,24.11,150.46,.15,109.69,0h0c0,9.45-7.66,17.12-17.12,17.12h-31.39c-9.51,0-17.21,7.71-17.21,17.21v24.49c0,9.34-7.57,16.91-16.91,16.91h-10.1c-9.37,0-16.96,7.59-16.96,16.96v24.44c0,9.51,7.71,17.21,17.21,17.21h9.85c9.34,0,16.91,7.57,16.91,16.91v24.49c0,9.51,7.71,17.21,17.21,17.21h36.97c8.09,0,14.65,6.56,14.65,14.65,1.11,.04-.89,.07,.22,.07,33.07,0,63.94-15.86,83.44-41.73,7.87-10.46,20.13-16.67,33.21-16.67h12.07c12.91,0,24.86-5.66,33.06-15.01h-39.21Z"/></g></svg>